<svg width="2600" height="600" xmlns="http://www.w3.org/2000/svg" stroke="null" style="vector-effect: non-scaling-stroke;" preserveAspectRatio="xMidYMid meet" version="1.0">

 <g stroke="null">
  <title stroke="null">Layer 1</title>
  <g stroke="null" id="svg_1" fill="#ffffff">
   <path stroke="null" id="svg_2" d="m119.7459,563.90968c-14.36851,-2.61246 -33.63537,-9.47015 -44.73831,-15.83802c-5.87803,-3.42885 -17.14424,-12.73572 -25.30817,-20.89965c-12.40917,-12.24589 -16.16457,-17.30752 -22.53243,-30.20652c-12.08261,-24.3285 -14.69507,-36.57439 -14.69507,-68.57697c0,-29.71669 1.95934,-42.28913 10.6131,-66.61763c15.67474,-45.06487 50.1265,-85.55794 95.35465,-112.33561c37.39078,-22.0426 83.5986,-35.43144 123.11199,-35.59471c23.18555,-0.16328 32.81898,2.2859 42.94225,10.6131c12.24589,10.12327 16.00129,27.10423 9.47015,41.63602c-5.87803,12.899 -16.00129,17.14424 -51.43273,21.87932c-54.04519,7.02098 -86.21105,20.40981 -112.49889,46.53437c-12.899,13.06228 -23.67538,29.71669 -30.20652,47.35077c-4.73508,12.24589 -5.71475,17.4708 -6.36786,31.83931c-2.2859,46.69765 21.38948,75.10811 62.20911,75.10811c23.02227,0 39.5134,-7.67409 57.63731,-26.6144c20.40981,-21.38948 38.20717,-54.6983 65.96452,-122.78544c19.91998,-49.31011 46.3711,-114.45823 79.84319,-196.7506c13.55212,-33.63537 27.26751,-66.61763 30.3698,-73.31205c11.10294,-24.16522 24.49178,-34.45177 44.57503,-34.45177c18.94031,0.16328 31.83931,9.47015 36.90094,26.6144c1.79606,6.53114 17.14424,187.11717 17.14424,203.11846c0,5.55147 3.10229,-0.81639 18.61375,-39.5134c8.81704,-21.55276 24.65505,-60.41305 35.26816,-86.53761c10.6131,-25.96128 22.0426,-54.20846 25.47145,-62.69895c7.51081,-18.77703 13.71539,-27.26751 24.3285,-32.6557l8.00065,-4.24524l49.14683,0c36.24783,0 50.61634,0.48984 55.02486,2.12262c21.06293,7.51081 25.14489,33.14554 8.3272,51.10617c-11.4295,12.24589 -20.08326,14.85834 -52.08584,15.83802l-26.45112,0.65311l-1.95934,4.40852c-1.14295,2.2859 -14.53179,35.10488 -29.71669,72.82221c-15.34818,37.71734 -35.10488,86.53761 -44.0852,108.58021c-8.98032,22.0426 -22.85899,56.49436 -31.02292,76.7409c-17.30752,43.2688 -17.63408,43.92192 -25.47145,52.57568c-8.3272,9.30687 -16.49113,12.73572 -30.69636,12.73572c-25.14489,0 -35.59471,-8.98032 -41.30946,-35.75799c-0.97967,-4.89836 -4.40852,-41.63602 -7.51081,-81.63925c-7.02098,-90.12974 -8.65376,-109.88644 -9.47015,-110.53955c-0.16328,-0.32656 -13.22556,31.18619 -28.9003,70.04648c-70.86287,176.34079 -85.72122,206.22076 -119.03003,238.38662c-23.02227,22.20588 -47.67732,36.73766 -74.455,43.75864c-14.85834,3.91868 -55.84125,5.71475 -70.37304,3.10229z"/>
   <path stroke="null" id="svg_3" d="m750.81733,431.98065c-4.5718,-2.93901 -8.49048,-7.18425 -10.28655,-10.93966c-5.22491,-10.93966 -2.93901,-21.55276 13.22556,-60.7396c0.65311,-1.63279 -7.18425,-2.12262 -35.75799,-2.12262c-41.14618,0 -48.49372,-1.30623 -60.41305,-10.28655c-10.44982,-8.00065 -15.1849,-18.61375 -15.1849,-33.79865c0,-10.77638 0.65311,-13.71539 4.89836,-21.55276c6.0413,-11.26622 167.85031,-185.32111 184.83127,-198.70994c6.0413,-4.89836 15.83802,-11.10294 21.71604,-13.87867c9.30687,-4.40852 12.24589,-5.06163 24.49178,-5.06163c15.67474,0 23.02227,2.93901 32.00259,12.57245c10.12327,10.6131 13.38884,22.69571 10.6131,38.20717c-1.63279,8.98032 -17.63408,50.1265 -49.96322,128.99002c-7.34753,17.96064 -13.87867,34.28849 -14.53179,36.08455c-0.97967,3.26557 -0.32656,3.42885 14.04195,4.08196c20.89965,0.97967 29.55341,4.89836 34.28849,15.34818c5.87803,13.38884 0.65311,31.02292 -11.59277,39.18684c-10.44982,6.8577 -19.91998,8.81704 -42.94225,8.81704l-21.06293,0l-3.75541,8.65376c-2.12262,4.5718 -7.02098,16.49113 -10.93966,26.45112c-12.73572,32.00259 -23.02227,41.96258 -44.57503,42.94225c-10.44982,0.48984 -12.24589,0.16328 -19.10359,-4.24524zm37.71734,-155.44114c19.7567,-43.2688 40.81963,-91.9258 40.16651,-92.57891c-0.32656,-0.32656 -4.24524,3.26557 -8.65376,8.00065c-8.81704,9.30687 -75.59795,83.43532 -85.8845,95.35465l-6.36786,7.34753l26.45112,-0.48984l26.6144,-0.48984l7.67409,-17.14424z"/>
   <path stroke="null" id="svg_4" d="m1063.98551,431.00098c-8.98032,-2.44918 -13.87867,-6.36786 -16.81769,-13.55212c-6.69442,-15.83802 2.61246,-34.9416 21.06293,-43.10553c7.67409,-3.42885 11.75605,-3.75541 42.77897,-4.73508c37.88061,-1.14295 42.61569,-2.12262 50.28978,-11.26622c9.1436,-10.93966 8.16393,-22.53243 -3.75541,-47.51405c-4.89836,-9.79671 -9.1436,-17.96064 -9.79671,-17.96064c-0.48984,0 -2.93901,4.5718 -5.38819,10.28655c-8.81704,20.24653 -19.7567,28.9003 -36.41111,28.9003c-17.14424,0 -30.04325,-11.4295 -30.04325,-26.6144c0,-10.28655 3.26557,-18.12391 28.41046,-69.23009c18.45047,-37.39078 23.34883,-45.88126 30.04325,-52.57568c9.95999,-9.95999 18.77703,-12.899 29.71669,-10.12327c8.49048,2.2859 15.67474,8.49048 18.94031,16.16457c1.95934,4.24524 1.95934,7.34753 0.48984,16.16457c-3.91868,22.69571 0.16328,35.10488 21.87932,65.3114c26.45112,36.73766 34.45177,60.24977 30.53308,89.15007c-4.73508,33.79865 -33.79865,62.86223 -70.53632,70.37304c-16.16457,3.42885 -89.15007,3.59213 -101.39595,0.32656z"/>
   <path stroke="null" id="svg_5" d="m1288.33018,430.8377c-20.40981,-5.71475 -31.34947,-21.22621 -28.73702,-40.65635c1.14295,-8.81704 1.79606,-10.6131 26.77768,-71.84254c8.98032,-22.36916 16.49113,-41.30946 16.49113,-42.12586c0,-0.65311 -2.77573,-1.30623 -6.0413,-1.30623c-23.02227,0 -34.45177,-15.34818 -27.59407,-36.90094c5.06163,-16.32785 19.10359,-24.3285 45.71798,-26.12456l15.02162,-1.14295l10.12327,-25.47145c5.71475,-14.04195 12.73572,-28.9003 15.83802,-33.14554c6.8577,-9.47015 17.4708,-15.83802 28.24718,-17.14424c11.75605,-1.30623 18.45047,0.48984 25.96128,6.8577c12.899,10.93966 12.57245,25.47145 -1.14295,54.37174c-3.59213,7.51081 -6.53114,13.87867 -6.53114,14.20523c0,0.16328 5.06163,0.81639 11.4295,1.46951c14.20523,1.30623 23.34883,4.73508 28.57374,11.10294c3.42885,3.91868 4.08196,6.53114 4.08196,14.53179c0,12.08261 -2.77573,18.77703 -10.44982,25.63473c-9.79671,8.49048 -16.16457,10.44982 -38.37045,11.59277l-20.40981,0.97967l-7.18425,17.14424c-3.91868,9.47015 -12.57245,30.3698 -19.10359,46.53437l-11.91933,29.39013l23.83866,0.81639c25.96128,0.97967 32.32914,2.77573 39.35012,10.44982c3.10229,3.26557 4.24524,6.53114 4.73508,13.87867c1.14295,16.49113 -6.36786,28.0839 -23.51211,35.59471c-8.98032,3.91868 -81.80253,4.89836 -95.19137,1.30623z"/>
   <path stroke="null" id="svg_6" d="m1475.77391,431.00098c-30.3698,-8.16393 -48.00388,-38.37045 -40.16651,-68.74025c3.10229,-11.75605 43.43208,-112.00906 50.61634,-125.39789c12.40917,-23.51211 33.79865,-34.45177 52.24912,-26.6144c7.51081,3.10229 15.34818,12.57245 16.65441,20.08326c1.46951,9.47015 -0.81639,17.4708 -16.32785,55.18814c-28.0839,68.25042 -29.87997,74.29172 -24.3285,79.84319c3.59213,3.75541 8.98032,4.73508 20.73637,3.91868c13.55212,-0.81639 27.10423,-7.34753 33.63537,-16.32785c2.61246,-3.59213 10.44982,-20.24653 17.14424,-37.06422c31.83931,-79.19008 35.92127,-87.19072 48.49372,-96.33432c13.22556,-9.63343 31.34947,-9.95999 42.28913,-0.81639c10.77638,9.1436 12.40917,20.24653 5.87803,39.18684c-3.42885,9.95999 -33.14554,84.08843 -41.47274,103.68185l-3.26557,7.67409l25.47145,0.65311c35.26816,0.97967 42.28913,4.40852 44.0852,22.20588c1.63279,18.28719 -8.00065,32.00259 -26.6144,37.71734c-9.63343,2.93901 -15.1849,3.42885 -45.5547,3.42885c-19.91998,0 -37.2275,-0.81639 -40.98291,-1.79606c-4.08196,-1.14295 -9.1436,-4.40852 -13.06228,-8.65376l-6.69442,-6.8577l-7.83737,6.20458c-11.91933,9.47015 -19.7567,11.10294 -53.88191,10.93966c-17.96064,0 -32.49242,-0.81639 -37.06422,-2.12262z"/>
   <path stroke="null" id="svg_7" d="m1770.49161,431.00098c-23.51211,-5.71475 -42.12586,-25.30817 -48.82027,-51.59601c-4.40852,-16.81769 -2.77573,-51.92257 3.10229,-70.20976c14.69507,-45.06487 49.47339,-83.5986 87.354,-96.66088c8.81704,-3.10229 14.04195,-3.75541 29.55341,-3.59213c22.53243,0 31.67603,2.93901 46.53437,15.02162l9.79671,7.83737l16.00129,-39.35012c8.81704,-21.55276 23.83866,-58.29043 33.30882,-81.63925c17.96064,-44.57503 20.40981,-49.47339 29.55341,-61.06616c15.51146,-19.43014 46.04454,-19.91998 57.14748,-0.97967c6.20458,10.6131 4.40852,21.06293 -8.65376,53.06552c-14.53179,35.75799 -54.20846,133.39854 -84.08843,207.3637l-24.16522,59.59666l23.83866,0.81639c16.81769,0.65311 25.798,1.79606 29.87997,3.59213c23.67538,10.44982 19.43014,43.43208 -7.02098,55.35141c-8.00065,3.59213 -11.26622,3.91868 -40.65635,4.40852c-30.20652,0.65311 -32.49242,0.48984 -40.49307,-3.10229c-4.73508,-1.95934 -10.6131,-6.20458 -13.22556,-9.30687l-4.73508,-5.71475l-6.8577,6.0413c-12.24589,10.44982 -20.57309,12.40917 -51.75929,12.24589c-15.67474,0 -30.85964,-0.97967 -35.59471,-2.12262zm61.22944,-61.39272c10.6131,-2.93901 14.04195,-8.3272 27.92062,-43.2688c14.69507,-37.06422 15.67474,-43.10553 8.81704,-51.26945c-7.67409,-9.1436 -25.63473,-10.6131 -40.00323,-3.26557c-14.85834,7.51081 -31.51275,29.39013 -38.20717,50.45306c-3.59213,10.93966 -4.08196,29.87997 -0.97967,37.39078c3.26557,7.51081 12.40917,11.4295 26.28784,11.59277c5.87803,0 13.22556,-0.65311 16.16457,-1.63279z"/>
   <path stroke="null" id="svg_8" d="m2029.77788,430.8377c-12.40917,-3.42885 -17.14424,-6.20458 -24.49178,-14.85834c-7.34753,-8.16393 -9.63343,-16.81769 -7.83737,-28.73702c1.30623,-8.49048 56.65764,-144.99131 62.69895,-154.78803c6.20458,-9.95999 16.32785,-17.30752 27.10423,-19.59342c15.1849,-3.10229 26.94095,1.30623 34.9416,13.06228c3.42885,5.06163 3.75541,7.02098 3.10229,16.32785c-0.81639,11.4295 -3.91868,19.7567 -31.18619,86.37433c-8.65376,20.89965 -15.67474,38.69701 -15.67474,39.35012c0,0.65311 10.77638,1.63279 24.16522,1.95934c21.06293,0.48984 24.81833,1.14295 31.02292,4.40852c9.47015,4.89836 14.20523,14.85834 12.57245,25.96128c-1.95934,13.71539 -8.65376,21.87932 -22.85899,28.41046c-7.67409,3.59213 -10.28655,3.75541 -46.53437,4.08196c-29.55341,0.32656 -40.32979,-0.16328 -47.02421,-1.95934z"/>
   <path stroke="null" id="svg_9" d="m2387.84765,322.58405c0,63.8419 -51.75929,115.60118 -115.60118,115.60118c-63.67862,0 -115.4379,-51.75929 -115.4379,-115.60118c0,-63.8419 51.75929,-115.60118 115.4379,-115.60118c63.8419,0 115.60118,51.75929 115.60118,115.60118zm-160.50277,109.07004m94.37498,-111.19266c0,-26.94095 -21.87932,-48.82027 -48.82027,-48.82027c-26.94095,0 -48.82027,21.87932 -48.82027,48.82027c0,26.94095 21.87932,48.82027 48.82027,48.82027c26.94095,0 48.82027,-21.87932 48.82027,-48.82027zm-38.69701,46.53437"/>
   <path stroke="null" id="svg_10" d="m2417.23778,431.81737c-13.06228,-3.26557 -20.08326,-9.95999 -21.55276,-20.89965c-1.95934,-14.85834 7.18425,-29.71669 22.85899,-36.57439c7.67409,-3.42885 11.75605,-3.75541 42.77897,-4.73508c37.55406,-1.14295 41.96258,-2.12262 50.61634,-11.26622c4.5718,-4.89836 4.89836,-6.20458 4.89836,-17.30752c0,-11.26622 -0.48984,-13.06228 -8.98032,-30.04325c-4.89836,-9.95999 -9.30687,-18.12391 -9.79671,-18.12391c-0.48984,0 -2.93901,4.5718 -5.38819,10.28655c-8.81704,20.08326 -19.7567,28.9003 -36.41111,28.9003c-21.55276,0 -34.9416,-18.12391 -28.41046,-38.53373c1.14295,-3.59213 12.57245,-27.92062 25.47145,-54.20846c19.7567,-40.49307 24.65505,-48.98355 31.34947,-55.67797c13.71539,-13.71539 30.20652,-14.85834 42.28913,-3.10229c7.67409,7.34753 9.1436,13.38884 6.8577,26.6144c-3.75541,21.87932 0,33.14554 21.38948,62.86223c27.92062,38.86028 36.90094,67.43402 30.20652,96.00776c-5.87803,25.14489 -22.20588,44.73831 -47.35077,57.14748c-16.81769,8.49048 -29.87997,10.12327 -75.43467,9.95999c-22.20588,-0.16328 -42.61569,-0.65311 -45.39143,-1.30623z"/>
   <path stroke="null" id="svg_11" d="m2155.33906,159.95865c0,22.20588 -17.96064,40.16651 -40.16651,40.16651c-22.0426,0 -40.00323,-17.96064 -40.00323,-40.16651c0,-22.20588 17.96064,-40.16651 40.00323,-40.16651c22.20588,0 40.16651,17.96064 40.16651,40.16651zm-56.49436,36.90094"/>
  </g>
 </g>
</svg>