<?xml version="1.0" encoding="utf-8"?>
<!DOCTYPE svg PUBLIC "-//W3C//DTD SVG 1.0//EN" "http://www.w3.org/TR/2001/REC-SVG-20010904/DTD/svg10.dtd">
<svg version="1.0" xmlns="http://www.w3.org/2000/svg" width="2436px" height="1125px" viewBox="0 0 2436 1125" preserveAspectRatio="xMidYMid meet">
 <g fill="#ffffff">
  <path d="M 496.4 725 c -8.8 -1.6 -20.6 -5.8 -27.4 -9.7 -3.6 -2.1 -10.5 -7.8 -15.5 -12.8 -7.6 -7.5 -9.9 -10.6 -13.8 -18.5 -7.4 -14.9 -9 -22.4 -9 -42 0 -18.2 1.2 -25.9 6.5 -40.8 9.6 -27.6 30.7 -52.4 58.4 -68.8 22.9 -13.5 51.2 -21.7 75.4 -21.8 14.2 -0.1 20.1 1.4 26.3 6.5 7.5 6.2 9.8 16.6 5.8 25.5 -3.6 7.9 -9.8 10.5 -31.5 13.4 -33.1 4.3 -52.8 12.5 -68.9 28.5 -7.9 8 -14.5 18.2 -18.5 29 -2.9 7.5 -3.5 10.7 -3.9 19.5 -1.4 28.6 13.1 46 38.1 46 14.1 0 24.2 -4.7 35.3 -16.3 12.5 -13.1 23.4 -33.5 40.4 -75.2 12.2 -30.2 28.4 -70.1 48.9 -120.5 8.3 -20.6 16.7 -40.8 18.6 -44.9 6.8 -14.8 15 -21.1 27.3 -21.1 11.6 0.1 19.5 5.8 22.6 16.3 1.1 4 10.5 114.6 10.5 124.4 0 3.4 1.9 -0.5 11.4 -24.2 5.4 -13.2 15.1 -37 21.6 -53 6.5 -15.9 13.5 -33.2 15.6 -38.4 4.6 -11.5 8.4 -16.7 14.9 -20 l 4.9 -2.6 30.1 0 c 22.2 0 31 0.3 33.7 1.3 12.9 4.6 15.4 20.3 5.1 31.3 -7 7.5 -12.3 9.1 -31.9 9.7 l -16.2 0.4 -1.2 2.7 c -0.7 1.4 -8.9 21.5 -18.2 44.6 -9.4 23.1 -21.5 53 -27 66.5 -5.5 13.5 -14 34.6 -19 47 -10.6 26.5 -10.8 26.9 -15.6 32.2 -5.1 5.7 -10.1 7.8 -18.8 7.8 -15.4 0 -21.8 -5.5 -25.3 -21.9 -0.6 -3 -2.7 -25.5 -4.6 -50 -4.3 -55.2 -5.3 -67.3 -5.8 -67.7 -0.1 -0.2 -8.1 19.1 -17.7 42.9 -43.4 108 -52.5 126.3 -72.9 146 -14.1 13.6 -29.2 22.5 -45.6 26.8 -9.1 2.4 -34.2 3.5 -43.1 1.9 z "/>
  <path d="M 882.9 644.2 c -2.8 -1.8 -5.2 -4.4 -6.3 -6.7 -3.2 -6.7 -1.8 -13.2 8.1 -37.2 0.4 -1 -4.4 -1.3 -21.9 -1.3 -25.2 0 -29.7 -0.8 -37 -6.3 -6.4 -4.9 -9.3 -11.4 -9.3 -20.7 0 -6.6 0.4 -8.4 3 -13.2 3.7 -6.9 102.8 -113.5 113.2 -121.7 3.7 -3 9.7 -6.8 13.3 -8.5 5.7 -2.7 7.5 -3.1 15 -3.1 9.6 0 14.1 1.8 19.6 7.7 6.2 6.5 8.2 13.9 6.5 23.4 -1 5.5 -10.8 30.7 -30.6 79 -4.5 11 -8.5 21 -8.9 22.1 -0.6 2 -0.2 2.1 8.6 2.5 12.8 0.6 18.1 3 21 9.4 3.6 8.2 0.4 19 -7.1 24 -6.4 4.2 -12.2 5.4 -26.3 5.4 l -12.9 0 -2.3 5.3 c -1.3 2.8 -4.3 10.1 -6.7 16.2 -7.8 19.6 -14.1 25.7 -27.3 26.3 -6.4 0.3 -7.5 0.1 -11.7 -2.6 z  m 23.1 -95.2 c 12.1 -26.5 25 -56.3 24.6 -56.7 -0.2 -0.2 -2.6 2 -5.3 4.9 -5.4 5.7 -46.3 51.1 -52.6 58.4 l -3.9 4.5 16.2 -0.3 16.3 -0.3 4.7 -10.5 z "/>
  <path d="M 1074.7 643.6 c -5.5 -1.5 -8.5 -3.9 -10.3 -8.3 -4.1 -9.7 1.6 -21.4 12.9 -26.4 4.7 -2.1 7.2 -2.3 26.2 -2.9 23.2 -0.7 26.1 -1.3 30.8 -6.9 5.6 -6.7 5 -13.8 -2.3 -29.1 -3 -6 -5.6 -11 -6 -11 -0.3 0 -1.8 2.8 -3.3 6.3 -5.4 12.4 -12.1 17.7 -22.3 17.7 -10.5 0 -18.4 -7 -18.4 -16.3 0 -6.3 2 -11.1 17.4 -42.4 11.3 -22.9 14.3 -28.1 18.4 -32.2 6.1 -6.1 11.5 -7.9 18.2 -6.2 5.2 1.4 9.6 5.2 11.6 9.9 1.2 2.6 1.2 4.5 0.3 9.9 -2.4 13.9 0.1 21.5 13.4 40 16.2 22.5 21.1 36.9 18.7 54.6 -2.9 20.7 -20.7 38.5 -43.2 43.1 -9.9 2.1 -54.6 2.2 -62.1 0.2 z "/>
  <path d="M 1212.1 643.5 c -12.5 -3.5 -19.2 -13 -17.6 -24.9 0.7 -5.4 1.1 -6.5 16.4 -44 5.5 -13.7 10.1 -25.3 10.1 -25.8 0 -0.4 -1.7 -0.8 -3.7 -0.8 -14.1 0 -21.1 -9.4 -16.9 -22.6 3.1 -10 11.7 -14.9 28 -16 l 9.2 -0.7 6.2 -15.6 c 3.5 -8.6 7.8 -17.7 9.7 -20.3 4.2 -5.8 10.7 -9.7 17.3 -10.5 7.2 -0.8 11.3 0.3 15.9 4.2 7.9 6.7 7.7 15.6 -0.7 33.3 -2.2 4.6 -4 8.5 -4 8.7 0 0.1 3.1 0.5 7 0.9 8.7 0.8 14.3 2.9 17.5 6.8 2.1 2.4 2.5 4 2.5 8.9 0 7.4 -1.7 11.5 -6.4 15.7 -6 5.2 -9.9 6.4 -23.5 7.1 l -12.5 0.6 -4.4 10.5 c -2.4 5.8 -7.7 18.6 -11.7 28.5 l -7.3 18 14.6 0.5 c 15.9 0.6 19.8 1.7 24.1 6.4 1.9 2 2.6 4 2.9 8.5 0.7 10.1 -3.9 17.2 -14.4 21.8 -5.5 2.4 -50.1 3 -58.3 0.8 z "/>
  <path d="M 1326.9 643.6 c -18.6 -5 -29.4 -23.5 -24.6 -42.1 1.9 -7.2 26.6 -68.6 31 -76.8 7.6 -14.4 20.7 -21.1 32 -16.3 4.6 1.9 9.4 7.7 10.2 12.3 0.9 5.8 -0.5 10.7 -10 33.8 -17.2 41.8 -18.3 45.5 -14.9 48.9 2.2 2.3 5.5 2.9 12.7 2.4 8.3 -0.5 16.6 -4.5 20.6 -10 1.6 -2.2 6.4 -12.4 10.5 -22.7 19.5 -48.5 22 -53.4 29.7 -59 8.1 -5.9 19.2 -6.1 25.9 -0.5 6.6 5.6 7.6 12.4 3.6 24 -2.1 6.1 -20.3 51.5 -25.4 63.5 l -2 4.7 15.6 0.4 c 21.6 0.6 25.9 2.7 27 13.6 1 11.2 -4.9 19.6 -16.3 23.1 -5.9 1.8 -9.3 2.1 -27.9 2.1 -12.2 0 -22.8 -0.5 -25.1 -1.1 -2.5 -0.7 -5.6 -2.7 -8 -5.3 l -4.1 -4.2 -4.8 3.8 c -7.3 5.8 -12.1 6.8 -33 6.7 -11 0 -19.9 -0.5 -22.7 -1.3 z "/>
  <path d="M 1507.4 643.6 c -14.4 -3.5 -25.8 -15.5 -29.9 -31.6 -2.7 -10.3 -1.7 -31.8 1.9 -43 9 -27.6 30.3 -51.2 53.5 -59.2 5.4 -1.9 8.6 -2.3 18.1 -2.2 13.8 0 19.4 1.8 28.5 9.2 l 6 4.8 9.8 -24.1 c 5.4 -13.2 14.6 -35.7 20.4 -50 11 -27.3 12.5 -30.3 18.1 -37.4 9.5 -11.9 28.2 -12.2 35 -0.6 3.8 6.5 2.7 12.9 -5.3 32.5 -8.9 21.9 -33.2 81.7 -51.5 127 l -14.8 36.5 14.6 0.5 c 10.3 0.4 15.8 1.1 18.3 2.2 14.5 6.4 11.9 26.6 -4.3 33.9 -4.9 2.2 -6.9 2.4 -24.9 2.7 -18.5 0.4 -19.9 0.3 -24.8 -1.9 -2.9 -1.2 -6.5 -3.8 -8.1 -5.7 l -2.9 -3.5 -4.2 3.7 c -7.5 6.4 -12.6 7.6 -31.7 7.5 -9.6 0 -18.9 -0.6 -21.8 -1.3 z  m 37.5 -37.6 c 6.5 -1.8 8.6 -5.1 17.1 -26.5 9 -22.7 9.6 -26.4 5.4 -31.4 -4.7 -5.6 -15.7 -6.5 -24.5 -2 -9.1 4.6 -19.3 18 -23.4 30.9 -2.2 6.7 -2.5 18.3 -0.6 22.9 2 4.6 7.6 7 16.1 7.1 3.6 0 8.1 -0.4 9.9 -1 z "/>
  <path d="M 1666.2 643.5 c -7.6 -2.1 -10.5 -3.8 -15 -9.1 -4.5 -5 -5.9 -10.3 -4.8 -17.6 0.8 -5.2 34.7 -88.8 38.4 -94.8 3.8 -6.1 10 -10.6 16.6 -12 9.3 -1.9 16.5 0.8 21.4 8 2.1 3.1 2.3 4.3 1.9 10 -0.5 7 -2.4 12.1 -19.1 52.9 -5.3 12.8 -9.6 23.7 -9.6 24.1 0 0.4 6.6 1 14.8 1.2 12.9 0.3 15.2 0.7 19 2.7 5.8 3 8.7 9.1 7.7 15.9 -1.2 8.4 -5.3 13.4 -14 17.4 -4.7 2.2 -6.3 2.3 -28.5 2.5 -18.1 0.2 -24.7 -0.1 -28.8 -1.2 z "/>
  <path d="M1885.5 577.2 C 1885.5 616.3 1853.8 648 1814.7 648 1775.7 648 1744 616.3 1744 577.2 1744 538.1 1775.7 506.4 1814.7 506.4 1853.8 506.4 1885.5 538.1 1885.5 577.2 Z M1787.2 644  M1845 575.9 C 1845 559.4 1831.6 546 1815.1 546 1798.6 546 1785.2 559.4 1785.2 575.9 1785.2 592.4 1798.6 605.8 1815.1 605.8 1831.6 605.8 1845 592.4 1845 575.9 Z M1821.3 604.4 "/>
  <path d="M 1903.5 644.1 c -8 -2 -12.3 -6.1 -13.2 -12.8 -1.2 -9.1 4.4 -18.2 14 -22.4 4.7 -2.1 7.2 -2.3 26.2 -2.9 23 -0.7 25.7 -1.3 31 -6.9 2.8 -3 3 -3.8 3 -10.6 0 -6.9 -0.3 -8 -5.5 -18.4 -3 -6.1 -5.7 -11.1 -6 -11.1 -0.3 0 -1.8 2.8 -3.3 6.3 -5.4 12.3 -12.1 17.7 -22.3 17.7 -13.2 0 -21.4 -11.1 -17.4 -23.6 0.7 -2.2 7.7 -17.1 15.6 -33.2 12.1 -24.8 15.1 -30 19.2 -34.1 8.4 -8.4 18.5 -9.1 25.9 -1.9 4.7 4.5 5.6 8.2 4.2 16.3 -2.3 13.4 0 20.3 13.1 38.5 17.1 23.8 22.6 41.3 18.5 58.8 -3.6 15.4 -13.6 27.4 -29 35 -10.3 5.2 -18.3 6.2 -46.2 6.1 -13.6 -0.1 -26.1 -0.4 -27.8 -0.8 z "/>
  <path d="M1743.1 477.6 C 1743.1 491.2 1732.1 502.2 1718.5 502.2 1705 502.2 1694 491.2 1694 477.6 1694 464 1705 453 1718.5 453 1732.1 453 1743.1 464 1743.1 477.6 Z M1708.5 500.2 "/>
 </g>
</svg>